<svg id="Layer_1" data-name="Layer 1" xmlns="http://www.w3.org/2000/svg" viewBox="0 0 527.1 141.2"><defs><style>.cls-1{fill:#5f6062}</style></defs><title>BPC-logo</title><path class="cls-1" d="M7.8 129.1c-.5 0-1.1 0-1.1.7v5.4c0 2.6.2 3.7 3.1 3.7s4.5-1.8 4.5-4.7c0-4.3-2.9-5.1-6.5-5.1m.2-9.2c-.6 0-1.3 0-1.3.9v6.6c0 .4.4.4.7.5 2.6 0 5.8-.6 5.8-4 0-2.9-2.6-4-5.2-4m1.6 20.3l-5-.1H.5a.4.4 0 0 1-.5-.4c0-1 1.5-.6 2.2-1s.7-2 .7-2.8v-13c0-.7 0-2.3-.7-2.7S0 120 0 119a.4.4 0 0 1 .4-.4H9.3c3.5 0 7.8.6 7.8 5 0 2.5-2.1 3.8-4.1 4.5 2.8.8 5.5 2.5 5.5 5.8 0 5-4.8 6.3-8.9 6.3M30.5 120.2c-.6.5-.6 2-.6 2.7v13.7c0 3.5 2.9 1.6 2.9 3.1a.4.4 0 0 1-.5.5l-4.5-.1h-4.2a.4.4 0 0 1-.4-.4c0-1 1.5-.5 2.3-1 .5-.5.6-2 .6-2.8v-13c0-.7 0-2.3-.7-2.7s-2.2-.1-2.3-1.1a.5.5 0 0 1 .5-.5h8.7a.5.5 0 0 1 .5.5c0 1-1.6.6-2.3 1.1M48.8 131c-.6 0-2.5 0-2.5-.8s1-.6 1.4-.6c2.7 0 4-2.5 4-5 0-3.2-2-4.8-5.2-4.8-.6 0-1.5 0-1.5.9v15.9c0 3.5 2.9 1.6 2.8 3.1a.4.4 0 0 1-.4.5l-4.5-.1h-4.2c-.3 0-.5 0-.5-.4 0-1 1.6-.6 2.3-1.1s.6-2.1.6-2.8v-12.9c0-.7 0-2.3-.6-2.7s-2.3-.1-2.3-1.1a.4.4 0 0 1 .5-.5H46.6c4.5 0 9.3.5 9.3 6.1 0 4-3.4 6.3-7.1 6.3M67.8 123.7l-2.2 6c0 .3.2.4.6.4h3.3a.8.8 0 0 0 .7-.2zm12.3 16.5l-4.7-.1H71a.5.5 0 0 1-.4-.4c0-1.3 2 0 2-2.2 0-1.6-1.1-4.2-1.7-5.7a21.7 21.7 0 0 0-5.1-.1 2.3 2.3 0 0 0-1 .2c-.6 1.3-2 4.6-2 5.9 0 1.8 2.3.6 2.3 2a.5.5 0 0 1-.5.4l-3.4-.1h-3.7a.5.5 0 0 1-.5-.4c0-1 1.6-.7 2.3-1 .9-.6 1.7-2.8 2-3.8l3.2-7.7c.6-1.6 2.9-6.6 2.5-8.2l1.9-1.3a.3.3 0 0 1 .4 0l2 5 4.9 12.2c.4 1 1.1 3.2 2 3.7.6.4 2.3.1 2.3 1.1a.4.4 0 0 1-.5.5M93 119.9c-.5 0-1.4 0-1.4.9v6.8c0 .7.1 1.4 1 1.4 3.2 0 5.4-.7 5.4-4.4 0-3-2-4.7-5-4.7m10 20.5c-1.6 0-3.5-.4-4.4-1.9-.7-1.1-4.2-8.3-5.1-8.3h-.6c-.3 0-1.3 0-1.3.4v5.3c0 .7 0 2.3.7 2.7s2.2.2 2.2 1.2a.4.4 0 0 1-.5.4h-8.6a.5.5 0 0 1-.6-.4c0-1 1.6-.7 2.3-1s.7-2.2.7-3V123c0-.7 0-2.4-.7-2.8s-2.2-.1-2.2-1.1a.4.4 0 0 1 .4-.5l4.4.1 3.9-.1c3.7 0 8.6 1 8.6 5.6 0 4-4 4.7-4.3 5.4a67.8 67.8 0 0 0 4 6.8 5.3 5.3 0 0 0 3.8 2.7c.2 0 .7.2.7.5 0 .6-2.8.8-3.3.8M128 124c-.1.3-.4.4-.7.5-.7 0-.5-.6-.5-1 0-2.7-1-3.4-3.6-3.4H121c-.5 0-.5 1.6-.5 1.9v14.5c0 3.5 3 1.6 3 3.2a.4.4 0 0 1-.6.5l-4.5-.1h-4.1a.5.5 0 0 1-.5-.4c0-1 1.6-.6 2.2-1s.7-2.2.7-2.9v-15.2c0-.6-1-.5-1.5-.5-3.7 0-4.4.1-5.7 3.7a1 1 0 0 1-.8.7c-.2 0-.6-.1-.6-.4l1.3-6a.6.6 0 0 1 .6-.4c1 0 .3 1 2 1h13.8a6.2 6.2 0 0 0 2.5-.8c.2 0 .3.3.3.5a49.1 49.1 0 0 1-.6 5.6M140.2 120.2c-.6.5-.6 2-.6 2.7v13.7c0 3.5 2.9 1.6 2.8 3.1a.4.4 0 0 1-.4.5l-4.5-.1h-4.2a.4.4 0 0 1-.5-.4c0-1 1.6-.5 2.3-1 .6-.5.7-2 .7-2.8v-13c0-.7 0-2.3-.6-2.7s-2.3-.1-2.4-1.1a.5.5 0 0 1 .5-.5h8.7a.5.5 0 0 1 .5.5c0 1-1.6.6-2.3 1.1M154.3 140.7a12 12 0 0 1-5.7-1.2c-.7-.5-.6-3.8-.6-4.8 0-.4 0-1.1.6-1.1a.4.4 0 0 1 .4.3l.6 1.8a5.9 5.9 0 0 0 5 3.7 4 4 0 0 0 4.2-4c0-4.9-10-5.9-10-11.2 0-4.2 3.6-6.2 7.4-6.2a17.5 17.5 0 0 1 4.7 1l.3 3.8a.6.6 0 0 1-.6.6c-1.4 0-.5-4-4.9-4a3.3 3.3 0 0 0-3.6 3.4c0 3.7 10.2 5.3 10.2 11.3 0 4.5-4 6.7-8 6.7M177 123.7l-2.1 6c0 .3.2.4.6.4h3.3a.8.8 0 0 0 .6-.2zm12.3 16.5l-4.6-.1h-4.4a.5.5 0 0 1-.5-.4c0-1.3 2.2 0 2.2-2.2 0-1.6-1.3-4.2-1.8-5.7a21.7 21.7 0 0 0-5.1-.1 2.4 2.4 0 0 0-1.1.2c-.5 1.3-2 4.6-2 5.9 0 1.8 2.3.6 2.3 2a.5.5 0 0 1-.5.4l-3.3-.1h-3.7a.5.5 0 0 1-.5-.4c0-1 1.6-.7 2.3-1 .9-.6 1.6-2.8 2-3.8l3.1-7.7c.7-1.6 3-6.6 2.6-8.2l1.9-1.3a.3.3 0 0 1 .3 0c.2.2 1.8 4.4 2 5l5 12.2c.3 1 1 3.2 2 3.7.6.4 2.2.1 2.2 1.1a.4.4 0 0 1-.4.5M218.3 119.8c-2 .3-1.8 2.4-1.8 4l-.1 16.7c0 .5-1 .9-1.3.5l-1.7-2-9-10.6-3.3-3.8-1.5-1.7a6.4 6.4 0 0 0 0 1.3V135c0 1.8 0 3.7 2.1 4 .5.1 1 .1 1 .8 0 .3-.1.4-.5.4H195a.5.5 0 0 1-.6-.4c0-.7.7-.7 1.1-.8 2.1-.3 2.2-2.3 2.2-4l.1-11.4c0-2 .3-3.4-2.2-3.8-.4 0-1 0-1-.7a.5.5 0 0 1 .5-.5l3.7.1 2.4-.1c.7 1.7 11.4 13.7 13.5 16a5.3 5.3 0 0 0 0-.7v-10.6c0-1.5-.2-3.1-2-3.4-.4-.1-1-.2-1-.8a.5.5 0 0 1 .5-.5l3.4.1h3.3a.5.5 0 0 1 .5.4c0 .6-.6.6-1 .7M245.7 131c-.5 0-2.5 0-2.5-.8s1-.6 1.4-.6c2.7 0 4-2.5 4-5 0-3.2-2-4.8-5.2-4.8-.6 0-1.5 0-1.5.9v15.9c0 3.5 2.9 1.6 2.9 3.1a.4.4 0 0 1-.5.5l-4.5-.1h-4.2c-.3 0-.5 0-.5-.4 0-1 1.6-.6 2.3-1.1s.7-2.1.7-2.8v-12.9c0-.7 0-2.3-.6-2.7s-2.3-.1-2.3-1.1a.4.4 0 0 1 .4-.5h8c4.4 0 9.2.5 9.2 6.1 0 4-3.4 6.3-7.1 6.3M269.3 119.3c-4.8 0-7.5 5.5-7.5 9.7 0 4.7 1.9 10.5 7.5 10.5 5.5 0 7.4-5.4 7.4-10 0-4.5-2-10.2-7.4-10.2m-.3 21.5c-6.7 0-11.6-4.5-11.6-11.3s5.1-11.6 12-11.6 11.6 4.4 11.6 11.4c0 7.1-4.9 11.5-12 11.5M301.4 140.2l-5.9-.1h-10.4a.5.5 0 0 1-.5-.4c0-1 1.6-.6 2.3-1s.7-2.2.7-2.9V123c0-.7 0-2.4-.7-2.8s-2.2-.1-2.3-1.1a.5.5 0 0 1 .5-.5l4.3.1 4.4-.1a.5.5 0 0 1 .5.5c0 1.5-3-.4-3 3v14c0 2.3.9 2.6 3 2.6h2c3 0 3.7-1 5.1-3.6.2-.3.5-1 .9-1a.7.7 0 0 1 .6.7c0 .6-1.2 4.5-1.5 5.4M315.4 120.2c-.6.5-.6 2-.6 2.7v13.7c0 3.5 2.9 1.6 2.9 3.1a.4.4 0 0 1-.5.5l-4.5-.1h-4.1a.4.4 0 0 1-.5-.4c0-1 1.5-.5 2.3-1 .6-.5.6-2 .6-2.8v-13c0-.7 0-2.3-.6-2.7s-2.3-.1-2.4-1.1a.5.5 0 0 1 .5-.5h8.7a.5.5 0 0 1 .5.5c0 1-1.6.6-2.3 1.1M342.3 139.7a16 16 0 0 1-6.5 1.1c-7.1 0-12-3.6-12-11 0-7.9 5.3-11.9 12.7-11.9a22.5 22.5 0 0 1 6.5 1.1 21.2 21.2 0 0 1 .4 3.8c0 .4 0 1.2-.5 1.2-.9 0-1.2-1.7-1.6-2.3a6 6 0 0 0-5.2-2.4c-5.7 0-8.3 5-8.3 10.1s2.7 10 8.3 10a6.4 6.4 0 0 0 5.8-3.3c.3-.6.6-2.3 1.4-2.4.4 0 .5.6.5.9 0 1-.6 4.5-1.6 5M368.2 120.1a40 40 0 0 0-7.3 11.3v5.2c0 3.5 3 1.6 2.9 3.1a.4.4 0 0 1-.5.5l-4.5-.1h-4.1a.4.4 0 0 1-.5-.4c0-1 1.5-.6 2.3-1.1s.6-2 .6-2.8c0-1.3.1-4.8-.5-5.8l-3.4-6.2c-.5-1-1.6-3.2-2.6-3.7-.7-.3-2.3-.1-2.4-1a.5.5 0 0 1 .5-.5l4.7.1h4.3a.5.5 0 0 1 .5.4c0 1.2-1.9.1-1.9 1.7s2.9 6.2 3.9 8c.8-1.4 4.4-7 4.4-8.2s-2-.3-2-1.5a.5.5 0 0 1 .5-.5l3.3.1h3.7a.5.5 0 0 1 .5.4c0 1-1.7.7-2.4 1M400.4 139.7a16 16 0 0 1-6.4 1.1c-7.2 0-12-3.6-12-11 0-7.9 5.2-11.9 12.7-11.9a22.5 22.5 0 0 1 6.5 1.1 22.1 22.1 0 0 1 .4 3.8c0 .4 0 1.2-.6 1.2-.8 0-1.2-1.7-1.6-2.3a6 6 0 0 0-5.2-2.4c-5.7 0-8.2 5-8.2 10.2s2.6 10 8.2 10a6.4 6.4 0 0 0 5.9-3.4c.3-.6.5-2.3 1.4-2.4.4 0 .5.6.5 1 0 1-.7 4.4-1.6 5M424.6 140.2l-6.8-.1h-10.5a.5.5 0 0 1-.5-.4c0-1 1.6-.5 2.3-1.1.7-.5.7-2.1.7-2.8V123c0-.7 0-2.4-.7-2.8s-2.2-.1-2.3-1.1a.5.5 0 0 1 .5-.5h16.9l.2 3.9c0 .4-.1 1.2-.7 1.2-.4 0-.5-.3-.6-.6-1-3-3-3-5.7-3h-3.3c-.6 0-.5 1.7-.5 2v5.4c0 .5.4.5.8.5h3.6c1.5 0 2.6 0 2.6-2 0-.4.2-1 .7-1s.6.6.6 1v5.6c0 .4-.1 1-.6 1s-.7-.6-.7-1c0-2-1.4-2-3-2h-3.2c-.3 0-.8.1-.8.6v6c0 3 1.5 2.7 4.1 2.7 3.6 0 5-.4 6.9-3.6.1-.3.4-1 .8-1a.7.7 0 0 1 .7.6c0 .6-1.2 4.5-1.5 5.4M453.6 119.8c-2 .3-1.9 2.4-1.9 4v16.7c0 .5-1 .9-1.3.5l-1.7-2-9-10.6-3.3-3.8-1.5-1.7a7 7 0 0 0 0 1.3V135c0 1.8 0 3.7 2.1 4 .5.1 1 .1 1 .8 0 .3-.1.4-.5.4H430.2a.5.5 0 0 1-.5-.4c0-.7.6-.7 1-.8 2.1-.3 2.2-2.3 2.3-4v-11.4c0-2 .3-3.4-2.2-3.8-.4 0-1 0-1-.7a.5.5 0 0 1 .5-.5l3.7.1 2.4-.1c.7 1.7 11.4 13.7 13.5 16a5.3 5.3 0 0 0 0-.7v-10.6c0-1.5-.1-3.1-2-3.4-.4-.1-1-.2-1-.8a.5.5 0 0 1 .5-.5l3.4.1h3.3a.5.5 0 0 1 .5.4c0 .6-.5.6-1 .7M478.1 124c0 .3-.4.4-.7.5-.7 0-.5-.6-.5-1 0-2.7-1-3.4-3.6-3.4h-2.2c-.5 0-.5 1.6-.5 1.9v14.5c0 3.5 3 1.6 3 3.2a.4.4 0 0 1-.6.5l-4.5-.1h-4.1a.5.5 0 0 1-.5-.4c0-1 1.6-.6 2.3-1s.6-2.2.6-2.9v-15.2c0-.6-1-.5-1.5-.5-3.7 0-4.3.1-5.7 3.7a1 1 0 0 1-.8.7c-.2 0-.6-.1-.6-.4l1.3-6a.6.6 0 0 1 .6-.4c1 0 .3 1 2 1h13.8a6.3 6.3 0 0 0 2.5-.8c.2 0 .3.3.3.5a49.1 49.1 0 0 1-.6 5.7M500 140.2l-6.8-.1H482.8a.5.5 0 0 1-.6-.4c0-1 1.6-.5 2.4-1.1.6-.5.6-2.1.6-2.8V123c0-.7 0-2.4-.6-2.8s-2.3-.1-2.4-1.1a.5.5 0 0 1 .5-.5h17l.1 3.9c0 .4 0 1.2-.7 1.2-.3 0-.5-.3-.5-.6-1.1-3-3-3-5.8-3h-3.3c-.5 0-.5 1.7-.5 2v5.4c0 .5.5.5.8.5h3.6c1.5 0 2.6 0 2.6-2 0-.4.2-1 .7-1s.7.6.7 1l-.2 2.8.1 2.8c0 .4 0 1-.6 1s-.7-.6-.7-1c0-2-1.4-2-3-2H490c-.4 0-.8.1-.8.6v6c0 3 1.4 2.7 4 2.7 3.6 0 5-.4 7-3.6 0-.3.4-1 .7-1a.7.7 0 0 1 .7.6c0 .6-1.2 4.5-1.5 5.4M513.7 119.9c-.5 0-1.5 0-1.5.9v6.8c0 .7.1 1.4 1 1.4 3.2 0 5.4-.7 5.4-4.4 0-3-2-4.7-4.9-4.7m10 20.5c-1.6 0-3.5-.4-4.5-1.9-.7-1.1-4.2-8.3-5.1-8.3h-.6c-.3 0-1.3 0-1.3.4v5.3c0 .7 0 2.3.7 2.7s2.2.2 2.2 1.2a.4.4 0 0 1-.5.4H506a.5.5 0 0 1-.5-.4c0-1 1.6-.7 2.2-1s.7-2.2.7-3V123c0-.7 0-2.4-.7-2.8s-2.2-.1-2.2-1.1a.4.4 0 0 1 .4-.5l4.4.1 3.9-.1c3.7 0 8.6 1 8.6 5.6 0 4-4 4.7-4.2 5.4a69.9 69.9 0 0 0 4 6.8 5.3 5.3 0 0 0 3.7 2.7c.2 0 .7.2.7.5 0 .6-2.7.8-3.3.8"/><path d="M273.7 3.9c36.5 5 58 36.6 66.7 84.9h36.7C362.4 42.8 334.2 17 302.8 5a138 138 0 0 0-29-5.1z" fill="#e33b45"/><path d="M185.7 88.8c8.8-48.3 30.3-80 67-85V0a139.3 139.3 0 0 0-29.4 5.1c-31.4 12-59.5 37.7-74.2 83.7z" fill="#3d618b"/></svg>