<svg width="60" height="60" viewBox="0 0 60 60" fill="none" xmlns="http://www.w3.org/2000/svg"><path d="M30 60a29.3 29.3 0 0 1-21.2-8.8A29.9 29.9 0 0 1 30 0a29.1 29.1 0 0 1 21.2 8.8A30.4 30.4 0 0 1 59 38a30.4 30.4 0 0 1-21 21c-2.5.6-5.1 1-7.9 1zm14.5-42.4H16a1 1 0 0 0-.7.3 1 1 0 0 0-.3.8v3.1c0 .2 0 .3.2.3l15 8.5h.2L45 22.1h.2l.1-.1c.2 0 .3-.1.3-.3v-3a1 1 0 0 0-.3-.8 1 1 0 0 0-.7-.3zM24 30.4v-.2l-.1-.1-8.6-5h-.3l-.1.2v13l.2.2h.1l.1-.1 8.7-8zm10.4 1c0-.1-.1-.2-.3 0l-3.3 1.8c-.4.3-.8.3-1.3 0l-2.8-1.6h-.3l-11 10.2v.4l.5.2h28.2l.2-.2V42l-9.9-10.5zm10.8-6.5h-.2l-8.2 4.9-.1.1v.2L45 39l.2.2h.1l.2-.3V25.1l-.2-.2z" fill="#CFCFCF"/></svg>